# Blender v2.81 (sub 16) OBJ File: ''
# www.blender.org
mtllib platform3.mtl
o Fountain_of__Dreams.001
v 1.844825 -2.154353 -0.733354
v 1.843112 -2.154155 0.254400
v 4.730250 -2.153546 0.259436
v 4.731964 -2.153754 -0.728318
v 1.920729 -2.382271 -0.657193
v 1.919271 -2.382092 0.178595
v 4.654450 -2.381530 0.183364
v 4.655912 -2.381694 -0.652425
vt 0.000000 0.000000
vt 0.000000 3.000000
vt 20.000000 3.000000
vt 20.000000 0.000000
vt 0.000000 1.000000
vt 0.230500 0.000000
vt 3.000000 1.000000
vt 2.769500 0.000000
vt 0.000000 1.000000
vt 0.261700 0.000000
vt 10.000000 1.000000
vt 9.738300 0.000000
vt 3.000000 1.000000
vt 2.769500 0.000000
vt 0.000000 1.000000
vt 0.230500 0.000000
vt 10.000000 1.000000
vt 9.738300 0.000000
vt 0.261700 0.000000
vt 19.472700 0.308600
vt 19.472700 3.691400
vt 0.527300 3.691400
vt 0.527300 0.308600
vn -0.0002 1.0000 -0.0002
vn -0.9486 -0.3164 -0.0016
vn -0.0016 -0.3161 0.9487
vn -0.0016 -0.3160 0.9487
vn 0.9488 -0.3160 0.0017
vn 0.0017 -0.3164 -0.9486
vn 0.0002 -1.0000 0.0002
usemtl _6d42536f_dds
s 1
f 1/1/1 2/2/1 3/3/1
f 4/4/1 1/1/1 3/3/1
usemtl _68c8c231_dds
f 1/5/2 5/6/2 2/7/2
f 2/7/2 5/6/2 6/8/2
f 2/9/3 6/10/3 3/11/4
f 3/11/4 6/10/3 7/12/4
f 3/13/5 7/14/5 4/15/5
f 4/15/5 7/14/5 8/16/5
f 4/17/6 8/18/6 1/5/6
f 1/5/6 8/18/6 5/19/6
usemtl e5b99a4b_dds
f 8/20/7 7/21/7 6/22/7
f 5/23/7 8/20/7 6/22/7
