# Blender v2.81 (sub 16) OBJ File: 'FoD.blend'
# www.blender.org
mtllib skyring2.mtl
o Fountain_of__Dreams.004
v 11.788639 1.432306 -26.713816
v 16.692497 0.901387 -19.976330
v 17.653286 2.941535 -19.786301
v 12.475050 2.889892 -26.578060
v 8.382963 7.974741 -26.317289
v 11.926231 10.054665 -19.421604
v 10.376402 10.989644 -19.399815
v 7.274923 8.642842 -26.301746
v -4.632479 12.180367 -26.417610
v -6.286072 15.939782 -19.561958
v -8.268270 16.103922 -19.614235
v -6.048939 12.296880 -26.455021
v -7.574435 -12.652743 -28.443378
v -10.401998 -18.807280 -22.396458
v -8.908463 -20.536400 -22.481789
v -6.506615 -13.888079 -28.504313
v 16.521561 -0.854401 -20.118334
v 11.666970 0.177054 -26.815340
v 6.811155 1.209653 -33.513443
v 6.884814 1.963326 -33.452473
v 7.296760 2.839507 -33.370888
v 7.008423 0.477734 -33.563850
v 11.994522 -1.042140 -26.899300
v 16.980556 -2.560755 -20.235840
v 7.273118 3.740033 -33.301704
v 12.434326 4.387959 -26.463013
v 17.596626 5.037220 -19.625351
v 7.559737 -0.321115 -33.607792
v 12.912759 -2.370899 -26.972416
v 18.265743 -4.419425 -20.338072
v 13.120213 -3.855572 -27.080950
v 18.556358 -6.497484 -20.489979
v 12.897015 -5.249214 -27.196535
v 18.243158 -8.448424 -20.651833
v 12.266708 -6.512743 -27.315384
v 17.361088 -10.215936 -20.818069
v 16.965084 6.912305 -19.500395
v 11.983603 5.728668 -26.373640
v 7.002267 4.543968 -33.248131
v 11.152805 6.874895 -26.311848
v 6.503201 5.233058 -33.210979
v 10.009857 7.584382 -26.294231
v 5.816216 5.659347 -33.200397
v 15.802545 8.515672 -19.413988
v 14.203528 9.509513 -19.389233
v 7.685170 -1.212304 -33.672913
v 7.550900 -2.049928 -33.742401
v 7.172274 -2.808311 -33.813732
v 4.838672 5.893675 -33.214264
v 4.173581 6.294989 -33.204910
v 3.686058 6.859401 -33.177063
v 6.463737 9.581315 -26.255440
v 9.241365 12.304494 -19.334917
v 3.343729 7.709923 -33.122219
v 5.893617 10.998505 -26.164043
v 8.443524 14.287167 -19.207048
v 2.702672 8.452736 -33.085545
v 4.825791 12.233842 -26.103104
v 6.950005 16.016300 -19.121731
v 6.564970 -3.339679 -33.874943
v 11.256306 -7.396292 -27.417168
v 15.947579 -11.451641 -20.960459
v 5.174887 16.899475 -19.111349
v 3.557579 12.865825 -26.095627
v 1.940323 8.832263 -33.081070
v 2.212898 12.960210 -26.132416
v 1.132621 8.888352 -33.103210
v 0.751146 12.612602 -26.207378
v 0.254900 8.679485 -33.148220
v -0.631725 11.835230 -26.313152
v -0.575734 8.212756 -33.211739
v -1.871078 11.560109 -26.375195
v -1.320799 8.048310 -33.249001
v -2.083156 8.091757 -33.270626
v -3.139456 11.633874 -26.411079
v -4.196787 15.174853 -19.552832
v -2.421425 15.073190 -19.502485
v -0.686428 15.456697 -19.415752
v 1.248684 16.544716 -19.267740
v 3.293209 17.032166 -19.162785
v 5.639142 -3.726844 -33.935406
v 9.715446 -8.039821 -27.517727
v 13.790619 -12.352798 -21.101231
v 5.049213 -4.228909 -33.993759
v 8.732543 -8.875799 -27.614910
v 12.415924 -13.522590 -21.237221
v 4.661363 -4.862436 -34.055717
v 8.087255 -9.931209 -27.718081
v 11.513191 -14.999872 -21.381603
v 7.759063 -11.421674 -27.844631
v 11.053783 -17.084665 -21.558655
v 6.909614 -12.810952 -27.980442
v 9.865923 -19.029076 -21.748684
v 5.762619 -13.635678 -28.082146
v 8.260348 -20.183676 -21.891056
v -2.979915 8.419802 -33.274563
v -3.830734 8.489862 -33.297024
v 4.464270 -5.757432 -34.131702
v 3.954505 -6.592643 -34.213333
v 3.264910 -7.087580 -34.274399
v -4.668224 8.301708 -33.339127
v -7.443549 11.982592 -26.525208
v -10.218820 15.663573 -19.712452
v -11.824380 14.508971 -19.854836
v -8.590447 11.156696 -26.627003
v -5.357719 7.805563 -33.400272
v -9.439889 9.767436 -26.762806
v -5.867477 6.970374 -33.481880
v -9.768182 8.278120 -26.889271
v -6.064674 6.076559 -33.557800
v -13.012258 12.564557 -20.044872
v -13.471749 10.480917 -20.221821
v -14.374387 9.002482 -20.366299
v -10.413472 7.222714 -26.992439
v -6.452431 5.441866 -33.619831
v -11.396363 6.386725 -27.089636
v -7.042359 4.939789 -33.678200
v -12.937139 5.742042 -27.190277
v -7.968179 4.552640 -33.738659
v -13.947644 4.859667 -27.291981
v -8.575582 4.022423 -33.799770
v -8.954122 3.262885 -33.871208
v -14.577950 3.596126 -27.410820
v -20.201611 3.928317 -20.951702
v -19.319550 5.695836 -20.785450
v -17.906036 6.931535 -20.643055
v -15.749082 7.832704 -20.502277
v 2.427521 -7.276915 -34.316589
v 4.368017 -13.949985 -28.152319
v 6.309805 -20.624035 -21.989279
v 2.951559 -13.833457 -28.189753
v 4.327613 -20.459877 -22.041550
v 1.458533 -13.286972 -28.196278
v 2.238328 -19.694956 -22.050676
v 1.576700 -7.206835 -34.339054
v 0.679938 -6.878798 -34.342987
v -20.119503 1.834678 -21.111660
v -14.518685 2.099566 -27.525152
v -8.917836 2.364536 -33.939796
v -14.144959 0.745691 -27.618078
v -8.693959 1.551020 -33.995659
v -13.506719 -0.663682 -27.706619
v -8.310048 0.705002 -34.048798
v -13.347787 -1.831293 -27.792118
v -8.214364 0.003302 -34.100166
v -13.469468 -3.086551 -27.893627
v -8.288033 -0.750372 -34.161140
v -14.155869 -4.544152 -28.029402
v -8.699971 -1.626544 -34.242714
v -19.595837 -0.060700 -21.241724
v -18.702274 -2.031057 -21.365488
v -18.480118 -3.664559 -21.485111
v -18.650948 -5.421489 -21.627201
v -19.611839 -7.460480 -21.817118
v -0.082519 -6.834174 -34.364548
v 0.190248 -13.214361 -28.232248
v 0.462963 -19.593287 -22.101038
v -1.049192 -13.488310 -28.294205
v -1.272032 -19.976797 -22.187757
v -2.432071 -14.265691 -28.399973
v -3.207143 -21.064819 -22.335773
v -0.827473 -6.999814 -34.401871
v -1.658106 -7.466548 -34.465363
v -8.676415 -2.525913 -34.311813
v -14.115144 -6.042209 -28.144432
v -19.555077 -9.557322 -21.978172
v -18.923542 -11.432422 -22.103134
v -13.664517 -7.381752 -28.233734
v -8.405477 -3.331012 -34.365479
v -12.833730 -8.527988 -28.295513
v -7.906503 -4.018942 -34.402542
v -11.690679 -9.238626 -28.313202
v -7.219436 -4.446381 -34.413208
v -10.063890 -9.627837 -28.290073
v -6.241886 -4.680731 -34.399342
v -8.955853 -10.295942 -28.305624
v -5.576790 -5.082026 -34.408695
v -17.760998 -13.035771 -22.189545
v -16.161995 -14.029611 -22.214283
v -13.884694 -14.574769 -22.181931
v -12.334870 -15.509749 -22.203711
v -2.486054 -7.671405 -34.508450
v -3.810459 -14.606614 -28.471674
v -5.135895 -21.542957 -22.436201
v -5.238504 -14.518926 -28.511732
v -7.133348 -21.419586 -22.492163
v -4.105879 -7.239771 -34.528076
v -3.343619 -7.618154 -34.532463
v -5.089371 -5.645294 -34.436451
v -8.144666 -11.234412 -28.351910
v -11.199922 -16.823441 -22.268536
v -4.746941 -6.496957 -34.491398
vt 5.906300 0.500000
vt 5.906300 0.000000
vt 5.812500 0.000000
vt 5.812500 0.500000
vt 5.343800 0.500000
vt 5.343800 0.000000
vt 5.250000 0.000000
vt 5.250000 0.500000
vt 4.312500 0.500000
vt 4.312500 0.000000
vt 4.218800 0.000000
vt 4.218800 0.500000
vt 2.062500 0.500000
vt 2.062500 0.000000
vt 1.968800 0.000000
vt 1.968800 0.500000
vt 6.000000 0.000000
vt 6.000000 0.500000
vt 6.000000 1.000000
vt 5.906300 1.000000
vt 5.812500 1.000000
vt 6.093800 1.000000
vt 6.093800 0.500000
vt 6.093800 0.000000
vt 5.718800 1.000000
vt 5.718800 0.500000
vt 5.718800 0.000000
vt 0.093800 1.000000
vt 0.187500 1.000000
vt 0.093800 0.500000
vt 0.187500 0.500000
vt 0.093800 0.000000
vt 0.187500 0.000000
vt 0.281300 0.500000
vt 0.281300 0.000000
vt 0.375000 0.500000
vt 0.375000 0.000000
vt 0.468800 0.500000
vt 0.468800 0.000000
vt 5.625000 0.000000
vt 5.625000 0.500000
vt 5.625000 1.000000
vt 5.531300 0.500000
vt 5.531300 1.000000
vt 5.437500 0.500000
vt 5.437500 1.000000
vt 5.531300 0.000000
vt 5.437500 0.000000
vt 0.281300 1.000000
vt 0.375000 1.000000
vt 0.468800 1.000000
vt 5.343800 1.000000
vt 5.250000 1.000000
vt 5.156300 1.000000
vt 5.156300 0.500000
vt 5.156300 0.000000
vt 5.062500 1.000000
vt 5.062500 0.500000
vt 5.062500 0.000000
vt 4.968800 1.000000
vt 4.968800 0.500000
vt 4.968800 0.000000
vt 0.562500 1.000000
vt 0.562500 0.500000
vt 0.562500 0.000000
vt 4.875000 0.000000
vt 4.875000 0.500000
vt 4.875000 1.000000
vt 4.781300 0.500000
vt 4.781300 1.000000
vt 4.687500 0.500000
vt 4.687500 1.000000
vt 4.593800 0.500000
vt 4.593800 1.000000
vt 4.500000 0.500000
vt 4.500000 1.000000
vt 4.406300 1.000000
vt 4.406300 0.500000
vt 4.406300 0.000000
vt 4.500000 0.000000
vt 4.593800 0.000000
vt 4.687500 0.000000
vt 4.781300 0.000000
vt 0.656300 1.000000
vt 0.656300 0.500000
vt 0.656300 0.000000
vt 0.750000 1.000000
vt 0.750000 0.500000
vt 0.750000 0.000000
vt 0.843800 1.000000
vt 0.843800 0.500000
vt 0.843800 0.000000
vt 0.937500 0.500000
vt 0.937500 0.000000
vt 1.031300 0.500000
vt 1.031300 0.000000
vt 1.125000 0.500000
vt 1.125000 0.000000
vt 4.312500 1.000000
vt 4.218800 1.000000
vt 0.937500 1.000000
vt 1.031300 1.000000
vt 1.125000 1.000000
vt 4.125000 1.000000
vt 4.125000 0.500000
vt 4.125000 0.000000
vt 4.031300 0.000000
vt 4.031300 0.500000
vt 4.031300 1.000000
vt 3.937500 0.500000
vt 3.937500 1.000000
vt 3.843800 0.500000
vt 3.843800 1.000000
vt 3.937500 0.000000
vt 3.843800 0.000000
vt 3.750000 0.000000
vt 3.750000 0.500000
vt 3.750000 1.000000
vt 3.656300 0.500000
vt 3.656300 1.000000
vt 3.562500 0.500000
vt 3.562500 1.000000
vt 3.468800 0.500000
vt 3.468800 1.000000
vt 3.375000 1.000000
vt 3.375000 0.500000
vt 3.375000 0.000000
vt 3.468800 0.000000
vt 3.562500 0.000000
vt 3.656300 0.000000
vt 1.218800 1.000000
vt 1.218800 0.500000
vt 1.218800 0.000000
vt 1.312500 0.500000
vt 1.312500 0.000000
vt 1.406300 0.500000
vt 1.406300 0.000000
vt 1.312500 1.000000
vt 1.406300 1.000000
vt 3.281300 0.000000
vt 3.281300 0.500000
vt 3.281300 1.000000
vt 3.187500 0.500000
vt 3.187500 1.000000
vt 3.093800 0.500000
vt 3.093800 1.000000
vt 3.000000 0.500000
vt 3.000000 1.000000
vt 2.906300 0.500000
vt 2.906300 1.000000
vt 2.812500 0.500000
vt 2.812500 1.000000
vt 3.187500 0.000000
vt 3.093800 0.000000
vt 3.000000 0.000000
vt 2.906300 0.000000
vt 2.812500 0.000000
vt 1.500000 1.000000
vt 1.500000 0.500000
vt 1.500000 0.000000
vt 1.593800 0.500000
vt 1.593800 0.000000
vt 1.687500 0.500000
vt 1.687500 0.000000
vt 1.593800 1.000000
vt 1.687500 1.000000
vt 2.718800 1.000000
vt 2.718800 0.500000
vt 2.718800 0.000000
vt 2.625000 0.000000
vt 2.625000 0.500000
vt 2.625000 1.000000
vt 2.531300 0.500000
vt 2.531300 1.000000
vt 2.437500 0.500000
vt 2.437500 1.000000
vt 2.343800 0.500000
vt 2.343800 1.000000
vt 2.250000 0.500000
vt 2.250000 1.000000
vt 2.531300 0.000000
vt 2.437500 0.000000
vt 2.343800 0.000000
vt 2.250000 0.000000
vt 1.781300 1.000000
vt 1.781300 0.500000
vt 1.781300 0.000000
vt 1.875000 0.500000
vt 1.875000 0.000000
vt 1.968800 1.000000
vt 1.875000 1.000000
vt 2.156300 1.000000
vt 2.156300 0.500000
vt 2.156300 0.000000
vt 2.062500 1.000000
vn -0.7906 0.1687 0.5887
vn -0.7881 0.1821 0.5880
vn -0.7920 0.0944 0.6031
vn -0.7899 0.1199 0.6013
vn -0.3401 -0.8376 0.4275
vn -0.3176 -0.8503 0.4197
vn -0.5504 -0.6834 0.4797
vn -0.5552 -0.6789 0.4804
vn -0.2025 -0.8784 0.4329
vn -0.1800 -0.8802 0.4392
vn 0.0568 -0.8645 0.4995
vn 0.0394 -0.8677 0.4956
vn 0.6551 0.3545 0.6672
vn 0.6287 0.3785 0.6793
vn 0.4073 0.5279 0.7452
vn 0.4273 0.5173 0.7414
vn -0.8124 -0.1216 0.5702
vn -0.8127 -0.1122 0.5718
vn -0.8128 -0.1014 0.5736
vn -0.7931 0.1538 0.5893
vn -0.7878 0.1412 0.5995
vn -0.7844 -0.3607 0.5046
vn -0.7763 -0.3959 0.4906
vn -0.7680 -0.4271 0.4773
vn -0.7770 -0.1792 0.6034
vn -0.7766 -0.1810 0.6034
vn -0.7762 -0.1831 0.6034
vn -0.7711 -0.3936 0.5004
vn -0.7790 -0.3494 0.5206
vn -0.7860 -0.2961 0.5428
vn -0.7793 -0.0436 0.6251
vn -0.7763 -0.0260 0.6298
vn -0.7205 0.1710 0.6721
vn -0.7178 0.1778 0.6732
vn -0.6007 0.3941 0.6956
vn -0.6050 0.3877 0.6954
vn -0.7105 -0.3942 0.5829
vn -0.7075 -0.4012 0.5818
vn -0.7046 -0.4077 0.5808
vn -0.5629 -0.6340 0.5303
vn -0.5481 -0.6516 0.5244
vn -0.3420 -0.8307 0.4392
vn -0.3141 -0.8479 0.4271
vn -0.5797 -0.6131 0.5366
vn -0.3724 -0.8105 0.4521
vn -0.7817 -0.0595 0.6208
vn -0.7228 0.1653 0.6711
vn -0.5970 0.3995 0.6957
vn -0.3646 -0.8229 0.4357
vn -0.5611 -0.6736 0.4811
vn -0.7279 -0.4864 0.4834
vn -0.7363 -0.4747 0.4822
vn -0.7439 -0.4639 0.4811
vn -0.7439 -0.4563 0.4882
vn -0.7323 -0.4716 0.4913
vn -0.7191 -0.4883 0.4944
vn -0.5224 -0.6732 0.5234
vn -0.5146 -0.6786 0.5241
vn -0.5057 -0.6847 0.5248
vn -0.4087 0.6092 0.6796
vn -0.4229 0.5966 0.6820
vn -0.4393 0.5817 0.6846
vn -0.2354 -0.8170 0.5264
vn -0.2282 -0.8193 0.5260
vn -0.2214 -0.8214 0.5256
vn 0.0537 -0.8658 0.4974
vn 0.0699 -0.8660 0.4951
vn 0.3020 -0.8385 0.4535
vn 0.3230 -0.8331 0.4490
vn 0.2971 -0.8444 0.4458
vn 0.2789 -0.8493 0.4481
vn 0.0534 -0.8875 0.4578
vn 0.0533 -0.8875 0.4578
vn -0.1739 -0.8856 0.4306
vn -0.1925 -0.8837 0.4266
vn -0.2085 -0.8817 0.4232
vn 0.0534 -0.8874 0.4578
vn 0.3128 -0.8399 0.4435
vn 0.2790 -0.8439 0.4582
vn 0.0359 -0.8653 0.5000
vn -0.4349 0.5948 0.6760
vn -0.4226 0.6049 0.6749
vn -0.4119 0.6133 0.6739
vn -0.5957 0.4454 0.6684
vn -0.5997 0.4411 0.6677
vn -0.6033 0.4372 0.6670
vn -0.7404 0.2695 0.6158
vn -0.7573 0.2449 0.6053
vn -0.7715 0.2233 0.5957
vn -0.7529 0.2415 0.6122
vn -0.7317 0.2693 0.6262
vn -0.5604 0.4381 0.7029
vn -0.5427 0.4516 0.7081
vn -0.3141 0.5863 0.7467
vn -0.3140 0.5863 0.7468
vn -0.2232 -0.8764 0.4268
vn 0.0235 -0.8704 0.4919
vn -0.7709 0.2165 0.5991
vn -0.5752 0.4263 0.6981
vn -0.3143 0.5863 0.7467
vn 0.3045 -0.7807 0.5457
vn 0.3111 -0.7774 0.5467
vn 0.3182 -0.7738 0.5477
vn 0.5662 -0.5986 0.5666
vn 0.5740 -0.5912 0.5666
vn 0.5807 -0.5846 0.5665
vn 0.7578 -0.3520 0.5495
vn 0.7670 -0.3350 0.5472
vn 0.7629 -0.3543 0.5407
vn 0.7564 -0.3673 0.5413
vn 0.7472 -0.3706 0.5517
vn 0.7687 -0.3424 0.5401
vn 0.6133 -0.5900 0.5251
vn 0.6174 -0.5848 0.5261
vn 0.6222 -0.5786 0.5274
vn 0.4351 -0.7754 0.4578
vn 0.4562 -0.7570 0.4677
vn 0.4349 -0.7683 0.4696
vn 0.4112 -0.7897 0.4554
vn 0.6139 -0.5396 0.5762
vn 0.6025 -0.5593 0.5694
vn 0.7307 -0.2167 0.6474
vn 0.7314 -0.2131 0.6478
vn 0.7323 -0.2083 0.6483
vn 0.6266 -0.5163 0.5838
vn 0.4606 -0.7436 0.4846
vn 0.4155 -0.7915 0.4483
vn -0.0608 0.6677 0.7420
vn -0.0727 0.6652 0.7431
vn -0.0864 0.6622 0.7443
vn 0.1434 0.6890 0.7105
vn 0.1210 0.6886 0.7150
vn 0.1346 0.6944 0.7069
vn 0.1515 0.6937 0.7041
vn 0.1636 0.6891 0.7060
vn 0.1161 0.6949 0.7097
vn 0.7505 0.0623 0.6579
vn 0.7500 0.0699 0.6578
vn 0.7495 0.0767 0.6575
vn 0.7274 0.2211 0.6497
vn 0.7257 0.2278 0.6491
vn 0.7438 0.1707 0.6462
vn 0.7449 0.1662 0.6462
vn 0.7800 -0.0340 0.6249
vn 0.7790 -0.0250 0.6266
vn 0.7891 -0.2703 0.5517
vn 0.7903 -0.2343 0.5661
vn 0.7820 -0.2240 0.5816
vn 0.7829 -0.2688 0.5612
vn 0.7289 0.2142 0.6502
vn 0.7427 0.1753 0.6463
vn 0.7810 -0.0425 0.6231
vn 0.7869 -0.3023 0.5380
vn 0.7787 -0.1705 0.6038
vn -0.0835 0.6887 0.7202
vn -0.0834 0.6887 0.7202
vn -0.2979 0.6597 0.6900
vn -0.3141 0.6563 0.6860
vn -0.3059 0.6529 0.6929
vn -0.2841 0.6560 0.6992
vn -0.2798 0.6630 0.6943
vn -0.3255 0.6498 0.6869
vn 0.7308 0.0619 0.6798
vn 0.7255 0.0772 0.6839
vn 0.7194 0.0940 0.6882
vn 0.6259 0.2856 0.7257
vn 0.6298 0.2794 0.7248
vn 0.6330 0.2741 0.7240
vn 0.4745 0.4804 0.7376
vn 0.4700 0.4852 0.7374
vn 0.2684 0.6521 0.7090
vn 0.2525 0.6623 0.7054
vn 0.2673 0.6602 0.7019
vn 0.2809 0.6523 0.7040
vn 0.4683 0.5268 0.7094
vn 0.4636 0.5304 0.7098
vn 0.4798 0.4748 0.7378
vn 0.2867 0.6400 0.7129
vn 0.2555 0.6669 0.6999
vn 0.4725 0.5235 0.7090
vn -0.1040 0.6642 0.7403
vn -0.0920 0.6637 0.7424
vn -0.0781 0.6629 0.7446
vn 0.1579 0.6242 0.7652
vn 0.1578 0.6242 0.7652
vn 0.4442 0.5081 0.7379
vn 0.1580 0.6242 0.7651
vn 0.6380 0.3802 0.6696
vn 0.6594 0.3587 0.6607
vn 0.6776 0.3396 0.6523
vn 0.6778 0.3329 0.6556
usemtl d7d6dff1_dds
s 1
f 1/1/1 2/2/2 3/3/3
f 1/1/1 3/3/3 4/4/4
f 5/5/5 6/6/6 7/7/7
f 5/5/5 7/7/7 8/8/8
f 9/9/9 10/10/10 11/11/11
f 9/9/9 11/11/11 12/12/12
f 13/13/13 14/14/14 15/15/15
f 13/13/13 15/15/15 16/16/16
f 17/17/17 2/2/2 18/18/18
f 2/2/2 1/1/1 18/18/18
f 18/18/18 1/1/1 19/19/19
f 19/19/19 1/1/1 20/20/20
f 1/1/1 4/4/4 20/20/20
f 20/20/20 4/4/4 21/21/21
f 19/19/19 22/22/22 18/18/18
f 22/22/22 23/23/23 18/18/18
f 18/18/18 23/23/23 17/17/17
f 23/23/23 24/24/24 17/17/17
f 25/25/25 21/21/21 26/26/26
f 21/21/21 4/4/4 26/26/26
f 26/26/26 4/4/4 27/27/27
f 4/4/4 3/3/3 27/27/27
f 22/28/22 28/29/28 23/30/23
f 28/29/28 29/31/29 23/30/23
f 23/30/23 29/31/29 24/32/24
f 24/32/24 29/31/29 30/33/30
f 29/31/29 31/34/31 30/33/30
f 30/33/30 31/34/31 32/35/32
f 31/34/31 33/36/33 32/35/32
f 32/35/32 33/36/33 34/37/34
f 33/36/33 35/38/35 34/37/34
f 34/37/34 35/38/35 36/39/36
f 27/27/27 37/40/37 26/26/26
f 37/40/37 38/41/38 26/26/26
f 26/26/26 38/41/38 25/25/25
f 25/25/25 38/41/38 39/42/39
f 38/41/38 40/43/40 39/42/39
f 39/42/39 40/43/40 41/44/41
f 40/43/40 42/45/42 41/44/41
f 41/44/41 42/45/42 43/46/43
f 37/40/37 44/47/44 38/41/38
f 38/41/38 44/47/44 40/43/40
f 44/47/44 45/48/45 40/43/40
f 40/43/40 45/48/45 42/45/42
f 28/29/28 46/49/46 29/31/29
f 29/31/29 46/49/46 31/34/31
f 46/49/46 47/50/47 31/34/31
f 31/34/31 47/50/47 33/36/33
f 47/50/47 48/51/48 33/36/33
f 33/36/33 48/51/48 35/38/35
f 45/48/45 6/6/6 42/45/42
f 6/6/6 5/5/5 42/45/42
f 42/45/42 5/5/5 43/46/43
f 43/46/43 5/5/5 49/52/49
f 5/5/5 8/8/8 49/52/49
f 49/52/49 8/8/8 50/53/50
f 51/54/51 50/53/50 52/55/52
f 50/53/50 8/8/8 52/55/52
f 52/55/52 8/8/8 53/56/53
f 8/8/8 7/7/7 53/56/53
f 54/57/54 51/54/51 55/58/55
f 51/54/51 52/55/52 55/58/55
f 55/58/55 52/55/52 56/59/56
f 52/55/52 53/56/53 56/59/56
f 57/60/57 54/57/54 58/61/58
f 54/57/54 55/58/55 58/61/58
f 58/61/58 55/58/55 59/62/59
f 55/58/55 56/59/56 59/62/59
f 48/51/48 60/63/60 35/38/35
f 60/63/60 61/64/61 35/38/35
f 35/38/35 61/64/61 36/39/36
f 61/64/61 62/65/62 36/39/36
f 59/62/59 63/66/63 58/61/58
f 63/66/63 64/67/64 58/61/58
f 58/61/58 64/67/64 57/60/57
f 57/60/57 64/67/64 65/68/65
f 64/67/64 66/69/66 65/68/65
f 65/68/65 66/69/66 67/70/67
f 66/69/66 68/71/68 67/70/67
f 67/70/67 68/71/68 69/72/69
f 68/71/68 70/73/70 69/72/69
f 69/72/69 70/73/70 71/74/71
f 70/73/70 72/75/72 71/74/71
f 71/74/71 72/75/72 73/76/73
f 74/77/74 73/76/73 75/78/75
f 73/76/73 72/75/72 75/78/75
f 75/78/75 72/75/72 76/79/76
f 76/79/76 72/75/72 77/80/77
f 72/75/72 70/73/70 77/80/77
f 77/80/77 70/73/70 78/81/78
f 70/73/70 68/71/68 78/81/78
f 78/81/78 68/71/68 79/82/79
f 68/71/68 66/69/66 79/82/79
f 79/82/79 66/69/66 80/83/80
f 66/69/66 64/67/64 80/83/80
f 80/83/80 64/67/64 63/66/63
f 60/63/60 81/84/81 61/64/61
f 81/84/81 82/85/82 61/64/61
f 61/64/61 82/85/82 62/65/62
f 82/85/82 83/86/83 62/65/62
f 81/84/81 84/87/84 82/85/82
f 84/87/84 85/88/85 82/85/82
f 82/85/82 85/88/85 83/86/83
f 85/88/85 86/89/86 83/86/83
f 84/87/84 87/90/87 85/88/85
f 87/90/87 88/91/88 85/88/85
f 85/88/85 88/91/88 86/89/86
f 86/89/86 88/91/88 89/92/89
f 88/91/88 90/93/90 89/92/89
f 89/92/89 90/93/90 91/94/91
f 90/93/90 92/95/92 91/94/91
f 91/94/91 92/95/92 93/96/93
f 92/95/92 94/97/94 93/96/93
f 93/96/93 94/97/94 95/98/95
f 76/79/76 10/10/10 75/78/75
f 10/10/10 9/9/9 75/78/75
f 75/78/75 9/9/9 74/77/74
f 74/77/74 9/9/9 96/99/96
f 9/9/9 12/12/12 96/99/96
f 96/99/96 12/12/12 97/100/97
f 87/90/87 98/101/98 88/91/88
f 88/91/88 98/101/98 90/93/90
f 98/101/98 99/102/99 90/93/90
f 90/93/90 99/102/99 92/95/92
f 99/102/99 100/103/100 92/95/92
f 92/95/92 100/103/100 94/97/94
f 101/104/101 97/100/97 102/105/102
f 97/100/97 12/12/12 102/105/102
f 102/105/102 12/12/12 103/106/103
f 12/12/12 11/11/11 103/106/103
f 103/106/103 104/107/104 102/105/102
f 104/107/104 105/108/105 102/105/102
f 102/105/102 105/108/105 101/104/101
f 101/104/101 105/108/105 106/109/106
f 105/108/105 107/110/107 106/109/106
f 106/109/106 107/110/107 108/111/108
f 107/110/107 109/112/109 108/111/108
f 108/111/108 109/112/109 110/113/110
f 104/107/104 111/114/111 105/108/105
f 105/108/105 111/114/111 107/110/107
f 111/114/111 112/115/112 107/110/107
f 107/110/107 112/115/112 109/112/109
f 112/115/112 113/116/113 109/112/109
f 113/116/113 114/117/114 109/112/109
f 109/112/109 114/117/114 110/113/110
f 110/113/110 114/117/114 115/118/115
f 114/117/114 116/119/116 115/118/115
f 115/118/115 116/119/116 117/120/117
f 116/119/116 118/121/118 117/120/117
f 117/120/117 118/121/118 119/122/119
f 118/121/118 120/123/120 119/122/119
f 119/122/119 120/123/120 121/124/121
f 122/125/122 121/124/121 123/126/123
f 121/124/121 120/123/120 123/126/123
f 123/126/123 120/123/120 124/127/124
f 124/127/124 120/123/120 125/128/125
f 120/123/120 118/121/118 125/128/125
f 125/128/125 118/121/118 126/129/126
f 118/121/118 116/119/116 126/129/126
f 126/129/126 116/119/116 127/130/127
f 116/119/116 114/117/114 127/130/127
f 127/130/127 114/117/114 113/116/113
f 100/103/100 128/131/128 94/97/94
f 128/131/128 129/132/129 94/97/94
f 94/97/94 129/132/129 95/98/95
f 95/98/95 129/132/129 130/133/130
f 129/132/129 131/134/131 130/133/130
f 130/133/130 131/134/131 132/135/132
f 131/134/131 133/136/133 132/135/132
f 132/135/132 133/136/133 134/137/134
f 128/131/128 135/138/135 129/132/129
f 129/132/129 135/138/135 131/134/131
f 135/138/135 136/139/136 131/134/131
f 131/134/131 136/139/136 133/136/133
f 124/127/124 137/140/137 123/126/123
f 137/140/137 138/141/138 123/126/123
f 123/126/123 138/141/138 122/125/122
f 122/125/122 138/141/138 139/142/139
f 138/141/138 140/143/140 139/142/139
f 139/142/139 140/143/140 141/144/141
f 140/143/140 142/145/142 141/144/141
f 141/144/141 142/145/142 143/146/143
f 142/145/142 144/147/144 143/146/143
f 143/146/143 144/147/144 145/148/145
f 144/147/144 146/149/146 145/148/145
f 145/148/145 146/149/146 147/150/147
f 146/149/146 148/151/148 147/150/147
f 147/150/147 148/151/148 149/152/149
f 137/140/137 150/153/150 138/141/138
f 138/141/138 150/153/150 140/143/140
f 150/153/150 151/154/151 140/143/140
f 140/143/140 151/154/151 142/145/142
f 151/154/151 152/155/152 142/145/142
f 142/145/142 152/155/152 144/147/144
f 152/155/152 153/156/153 144/147/144
f 144/147/144 153/156/153 146/149/146
f 153/156/153 154/157/154 146/149/146
f 146/149/146 154/157/154 148/151/148
f 136/139/136 155/158/155 133/136/133
f 155/158/155 156/159/156 133/136/133
f 133/136/133 156/159/156 134/137/134
f 134/137/134 156/159/156 157/160/156
f 156/159/156 158/161/157 157/160/156
f 157/160/156 158/161/157 159/162/158
f 158/161/157 160/163/159 159/162/158
f 159/162/158 160/163/159 161/164/160
f 155/158/155 162/165/161 156/159/156
f 156/159/156 162/165/161 158/161/157
f 162/165/161 163/166/162 158/161/157
f 158/161/157 163/166/162 160/163/159
f 164/167/163 149/152/149 165/168/164
f 149/152/149 148/151/148 165/168/164
f 165/168/164 148/151/148 166/169/165
f 148/151/148 154/157/154 166/169/165
f 166/169/165 167/170/166 165/168/164
f 167/170/166 168/171/167 165/168/164
f 165/168/164 168/171/167 164/167/163
f 164/167/163 168/171/167 169/172/168
f 168/171/167 170/173/169 169/172/168
f 169/172/168 170/173/169 171/174/170
f 170/173/169 172/175/171 171/174/170
f 171/174/170 172/175/171 173/176/172
f 172/175/171 174/177/173 173/176/172
f 173/176/172 174/177/173 175/178/174
f 174/177/173 176/179/175 175/178/174
f 175/178/174 176/179/175 177/180/176
f 167/170/166 178/181/177 168/171/167
f 168/171/167 178/181/177 170/173/169
f 178/181/177 179/182/178 170/173/169
f 170/173/169 179/182/178 172/175/171
f 179/182/178 180/183/179 172/175/171
f 172/175/171 180/183/179 174/177/173
f 180/183/179 181/184/180 174/177/173
f 174/177/173 181/184/180 176/179/175
f 163/166/162 182/185/181 160/163/159
f 182/185/181 183/186/182 160/163/159
f 160/163/159 183/186/182 161/164/160
f 161/164/160 183/186/182 184/187/183
f 183/186/182 185/188/184 184/187/183
f 184/187/183 185/188/184 186/189/185
f 15/15/15 186/189/185 16/16/16
f 186/189/185 185/188/184 16/16/16
f 16/16/16 185/188/184 187/190/186
f 187/190/186 185/188/184 188/191/187
f 185/188/184 183/186/182 188/191/187
f 188/191/187 183/186/182 182/185/181
f 189/192/188 177/180/176 190/193/189
f 177/180/176 176/179/175 190/193/189
f 190/193/189 176/179/175 191/194/190
f 176/179/175 181/184/180 191/194/190
f 191/194/190 14/14/14 190/193/189
f 14/14/14 13/13/13 190/193/189
f 190/193/189 13/13/13 189/192/188
f 189/192/188 13/13/13 192/195/191
f 13/13/13 16/16/16 192/195/191
f 192/195/191 16/16/16 187/190/186
