# Blender v2.82 (sub 7) OBJ File: ''
# www.blender.org
mtllib skyring1.mtl
o Fountain_of__Dreams.003
v 10.762909 -5.843375 -19.388529
v 14.557819 -7.855289 -11.633889
v 15.113128 -6.306134 -11.646931
v 11.173376 -4.699178 -19.398157
v 11.121863 -3.544676 -19.411600
v 15.043562 -4.744312 -11.665117
v 14.346391 -2.928397 -11.691191
v 10.606041 -2.204451 -19.430841
v 4.508677 -11.306129 -19.376919
v 2.927021 -7.358940 -27.134485
v 2.217199 -7.693795 -27.136387
v 3.409221 -11.825246 -19.379868
v 8.961626 6.048744 -19.537159
v 12.119853 8.246902 -11.835142
v 11.039547 9.254092 -11.855158
v 8.163620 6.791788 -19.551937
v -4.876105 -11.264703 -19.452509
v -3.134135 -7.333009 -27.183290
v -3.872146 -7.067573 -27.192196
v -6.020350 -10.855531 -19.466301
v -0.146578 11.014861 -19.666107
v -0.214052 14.972282 -12.009769
v -1.849910 16.024605 -12.034731
v -1.353660 11.792774 -19.684547
v -8.431609 -6.707660 -19.532402
v -5.430610 -4.389340 -27.234900
v -5.946197 -3.909273 -27.244450
v -9.229621 -5.964622 -19.547171
v -7.884089 7.877111 -19.692627
v -10.691772 10.723595 -12.045690
v -12.546226 10.421263 -12.057117
v -9.254107 7.654533 -19.701082
v -10.454894 -5.363575 -19.563776
v -6.737517 -3.520801 -27.255165
v -7.326713 -2.998357 -27.265778
v -11.368472 -4.554661 -19.580215
v -12.001491 -3.502300 -19.597164
v -7.735316 -2.318143 -27.276730
v -7.844798 -1.540349 -27.286377
v -12.170276 -2.298532 -19.612093
v 8.053442 -12.321849 -11.635553
v 9.009308 -11.204968 -11.640491
v 5.958663 -9.141227 -19.389748
v 6.664916 -8.316556 -19.393404
v 3.865062 -5.960698 -27.142750
v 4.320534 -5.428136 -27.145121
v 7.616086 -7.792991 -19.391710
v 4.934792 -5.089437 -27.144033
v 5.819190 -4.946457 -27.138567
v 8.986116 -7.570402 -19.383253
v 12.151850 -10.194194 -11.626753
v 10.297388 -10.496519 -11.638185
v 6.494554 -4.456915 -27.138674
v 10.030810 -6.814131 -19.383419
v 13.565999 -9.170010 -11.626993
v 3.543824 -6.797371 -27.135891
v 5.461790 -10.437275 -19.379101
v 7.379872 -14.075972 -11.621136
v 6.966928 -3.830109 -27.141983
v 7.232539 -3.090893 -27.148201
v 6.089247 -15.252005 -11.618200
v 4.600156 -15.955372 -11.622176
v 7.198848 -2.346073 -27.156862
v 6.865693 -1.480487 -27.169304
v 14.258610 -1.427080 -11.708841
v 10.541460 -1.095395 -19.443890
v 6.824309 -0.763671 -27.177723
v 10.814217 -0.065391 -19.453339
v 7.000663 -0.099235 -27.183798
v 11.543223 1.026838 -19.459816
v 7.471596 0.606882 -27.188011
v 11.902291 2.382652 -19.472246
v 7.703297 1.482756 -27.196033
v 11.733500 3.586407 -19.487177
v 7.593832 2.260540 -27.205694
v 14.627646 -0.032703 -11.721625
v 15.614828 1.446846 -11.730417
v 16.100094 3.282704 -11.747259
v 15.871972 4.912430 -11.767485
v 1.440586 -7.803466 -27.141369
v 2.205584 -11.992976 -19.387604
v 2.970428 -16.183649 -11.632649
v 0.717070 -7.618709 -27.149252
v 1.085653 -11.708649 -19.399782
v 1.455530 -15.797529 -11.649130
v -0.121428 -10.930743 -19.418222
v -0.180334 -14.745207 -11.674113
v 7.215026 2.904102 -27.215981
v 11.145205 4.583815 -19.503143
v 15.076566 6.263399 -11.789087
v -1.632281 -14.353567 -11.690155
v -1.194079 -10.641692 -19.430065
v -0.755879 -6.929812 -27.168804
v -0.062519 -7.116261 -27.161171
v 6.596015 3.463200 -27.227262
v 10.187016 5.448887 -19.520575
v 13.779212 7.434479 -11.812702
v 5.804578 3.850469 -27.237972
v 5.288992 4.330572 -27.247499
v 10.273447 10.516886 -11.875550
v 7.598651 7.724398 -19.566986
v 4.923969 4.933102 -27.257219
v 7.260995 9.047494 -19.584608
v 4.704757 5.786981 -27.268610
v 6.653761 10.105594 -19.601419
v 4.313368 6.471399 -27.279474
v 5.752368 10.939653 -19.618036
v 3.730636 7.009976 -27.290216
v -1.442279 -6.967166 -27.173878
v -2.257998 -10.699018 -19.437937
v -3.072532 -14.430964 -11.700792
v -3.475753 -11.190384 -19.442144
v -4.722049 -15.096254 -11.706498
v -2.229453 -7.284484 -27.176600
v 9.815922 12.306947 -11.899407
v 8.994278 13.740994 -11.922168
v 7.772908 14.869464 -11.944677
v 6.223821 15.424637 -11.963337
v 4.608232 11.350006 -19.631838
v 2.992516 7.274224 -27.299107
v 3.207761 11.274501 -19.642183
v 2.087835 7.225701 -27.305794
v 1.990007 10.783152 -19.646395
v 1.300646 6.908383 -27.308516
v 0.926073 10.725824 -19.654255
v 0.614244 6.871017 -27.313602
v -6.618205 -15.197557 -11.720540
v -8.167274 -14.642387 -11.739199
v 4.327669 15.323331 -11.977367
v 2.678162 14.658046 -11.983068
v 1.237904 14.580642 -11.993728
v -0.078989 7.058668 -27.321268
v -0.858697 7.559903 -27.333158
v -4.454867 -6.529010 -27.202932
v -6.921760 -10.021475 -19.482918
v -9.388652 -13.513927 -11.761715
v -7.528869 -8.962171 -19.499737
v -10.210307 -12.079874 -11.784472
v -7.866633 -7.640271 -19.517355
v -10.667815 -10.289814 -11.808331
v -3.364806 16.410732 -12.051222
v -2.473449 12.078284 -19.696739
v -1.582213 7.744689 -27.341043
v -3.677215 11.909389 -19.704466
v -2.358714 7.636209 -27.346027
v -4.711257 11.140018 -19.704048
v -3.027675 7.138782 -27.345762
v -5.491176 10.217355 -19.699875
v -3.531669 6.542834 -27.343079
v -4.846377 -5.845759 -27.213781
v -5.065589 -4.991888 -27.225178
v -4.994540 16.182457 -12.061689
v -6.394835 15.141254 -12.061147
v -7.451884 13.892026 -12.055504
v -8.386279 12.354265 -12.045634
v -6.181472 9.081554 -19.692589
v -3.976680 5.808860 -27.338356
v -6.932910 8.400697 -19.690929
v -4.462035 5.370540 -27.337294
v -9.403678 11.432043 -12.043368
v -11.433925 -9.027030 -11.828720
v -12.514243 -8.019822 -11.848723
v -5.076293 5.031840 -27.338379
v -5.960822 4.887690 -27.343834
v -6.636046 4.399319 -27.343737
v -10.298812 6.898253 -19.700901
v -13.960391 9.397091 -12.056886
v -14.173591 -7.207396 -11.871171
v -15.410262 -6.110934 -11.893459
v -7.108417 3.772526 -27.340439
v -11.030898 5.927492 -19.695801
v -14.952182 8.082363 -12.049974
v -7.374042 3.033291 -27.334223
v -11.441371 4.783308 -19.686180
v -15.507503 6.533219 -12.036942
v -15.437949 4.971381 -12.018761
v -11.389869 3.628780 -19.672743
v -7.340465 2.287281 -27.325542
v -10.874045 2.288565 -19.653488
v -7.007316 1.421719 -27.313095
v -10.809466 1.179518 -19.640451
v -6.965819 0.706080 -27.304684
v -14.740771 3.155480 -11.992678
v -14.652980 1.654148 -11.975034
v -16.266357 -4.685354 -11.916407
v -16.494469 -3.055640 -11.936629
v -15.022029 0.259778 -11.962253
v -11.082225 0.149511 -19.631016
v -7.142291 0.040454 -27.298595
v -11.811206 -0.942736 -19.624529
v -7.613223 -0.665672 -27.294397
v -16.009201 -1.219769 -11.953461
vt 0.098450 0.501279
vt 0.098450 0.012720
vt 0.113473 0.012720
vt 0.113473 0.501279
vt 0.128512 0.501279
vt 0.128512 0.012720
vt 0.143534 0.012720
vt 0.143534 0.501279
vt 0.955201 0.501279
vt 0.955201 0.989839
vt 0.940178 0.989839
vt 0.940178 0.501279
vt 0.263781 0.501279
vt 0.263781 0.012720
vt 0.278820 0.012720
vt 0.278820 0.501279
vt 0.834954 0.501279
vt 0.834954 0.989839
vt 0.819931 0.989839
vt 0.819931 0.501279
vt 0.414090 0.501279
vt 0.414090 0.012720
vt 0.429129 0.012720
vt 0.429129 0.501279
vt 0.759808 0.501279
vt 0.759808 0.989839
vt 0.744769 0.989839
vt 0.744769 0.501279
vt 0.534337 0.501279
vt 0.534337 0.012720
vt 0.549376 0.012720
vt 0.549376 0.501279
vt 0.729746 0.501279
vt 0.729746 0.989839
vt 0.714707 0.989839
vt 0.714707 0.501279
vt 0.699685 0.501279
vt 0.699685 0.989839
vt 0.684646 0.989839
vt 0.684646 0.501279
vt 0.023287 0.012720
vt 0.038326 0.012720
vt 0.023287 0.501279
vt 0.038326 0.501279
vt 0.023287 0.989839
vt 0.038326 0.989839
vt 0.053349 0.501279
vt 0.053349 0.989839
vt 0.068388 0.989839
vt 0.068388 0.501279
vt 0.068388 0.012720
vt 0.053349 0.012720
vt 0.083411 0.989839
vt 0.083411 0.501279
vt 0.083411 0.012720
vt 0.985263 0.989839
vt 0.970240 0.989839
vt 0.985263 0.501279
vt 0.970240 0.501279
vt 0.985263 0.012720
vt 0.970240 0.012720
vt 0.098450 0.989839
vt 0.113473 0.989839
vt 0.955201 0.012720
vt 0.940178 0.012720
vt 0.128512 0.989839
vt 0.143534 0.989839
vt 0.158573 0.012720
vt 0.158573 0.501279
vt 0.158573 0.989839
vt 0.173596 0.501279
vt 0.173596 0.989839
vt 0.188635 0.501279
vt 0.188635 0.989839
vt 0.203658 0.501279
vt 0.203658 0.989839
vt 0.218697 0.501279
vt 0.218697 0.989839
vt 0.173596 0.012720
vt 0.188635 0.012720
vt 0.203658 0.012720
vt 0.218697 0.012720
vt 0.925139 0.989839
vt 0.925139 0.501279
vt 0.925139 0.012720
vt 0.910117 0.989839
vt 0.910117 0.501279
vt 0.910117 0.012720
vt 0.895078 0.501279
vt 0.895078 0.012720
vt 0.233720 0.989839
vt 0.233720 0.501279
vt 0.233720 0.012720
vt 0.880055 0.012720
vt 0.880055 0.501279
vt 0.880055 0.989839
vt 0.895078 0.989839
vt 0.248758 0.989839
vt 0.248758 0.501279
vt 0.248758 0.012720
vt 0.263781 0.989839
vt 0.278820 0.989839
vt 0.293843 0.012720
vt 0.293843 0.501279
vt 0.293843 0.989839
vt 0.308882 0.501279
vt 0.308882 0.989839
vt 0.323905 0.501279
vt 0.323905 0.989839
vt 0.338944 0.501279
vt 0.338944 0.989839
vt 0.865016 0.989839
vt 0.865016 0.501279
vt 0.865016 0.012720
vt 0.849993 0.501279
vt 0.849993 0.012720
vt 0.849993 0.989839
vt 0.308882 0.012720
vt 0.323905 0.012720
vt 0.338944 0.012720
vt 0.353967 0.012720
vt 0.353967 0.501279
vt 0.353967 0.989839
vt 0.369006 0.501279
vt 0.369006 0.989839
vt 0.384028 0.501279
vt 0.384028 0.989839
vt 0.399067 0.501279
vt 0.399067 0.989839
vt 0.834954 0.012720
vt 0.819931 0.012720
vt 0.369006 0.012720
vt 0.384028 0.012720
vt 0.399067 0.012720
vt 0.414090 0.989839
vt 0.429129 0.989839
vt 0.804893 0.989839
vt 0.804893 0.501279
vt 0.804893 0.012720
vt 0.789869 0.501279
vt 0.789869 0.012720
vt 0.774831 0.501279
vt 0.774831 0.012720
vt 0.444152 0.012720
vt 0.444152 0.501279
vt 0.444152 0.989839
vt 0.459191 0.501279
vt 0.459191 0.989839
vt 0.474213 0.501279
vt 0.474213 0.989839
vt 0.489252 0.501279
vt 0.489252 0.989839
vt 0.789869 0.989839
vt 0.774831 0.989839
vt 0.459191 0.012720
vt 0.474213 0.012720
vt 0.489252 0.012720
vt 0.504275 0.012720
vt 0.504275 0.501279
vt 0.504275 0.989839
vt 0.519314 0.501279
vt 0.519314 0.989839
vt 0.519314 0.012720
vt 0.759808 0.012720
vt 0.744769 0.012720
vt 0.534337 0.989839
vt 0.549376 0.989839
vt 0.564399 0.989839
vt 0.564399 0.501279
vt 0.564399 0.012720
vt 0.729746 0.012720
vt 0.714707 0.012720
vt 0.579438 0.989839
vt 0.579438 0.501279
vt 0.579438 0.012720
vt 0.594460 0.989839
vt 0.594460 0.501279
vt 0.594460 0.012720
vt 0.609499 0.012720
vt 0.609499 0.501279
vt 0.609499 0.989839
vt 0.624522 0.501279
vt 0.624522 0.989839
vt 0.639561 0.501279
vt 0.639561 0.989839
vt 0.624522 0.012720
vt 0.639561 0.012720
vt 0.699685 0.012720
vt 0.684646 0.012720
vt 0.654584 0.012720
vt 0.654584 0.501279
vt 0.654584 0.989839
vt 0.669623 0.501279
vt 0.669623 0.989839
vt 0.669623 0.012720
vn -0.7682 0.4184 0.4846
vn -0.7682 0.4185 0.4845
vn -0.8689 0.1482 0.4724
vn -0.8718 0.1345 0.4711
vn -0.8882 -0.1826 0.4215
vn -0.8905 -0.1590 0.4262
vn -0.8887 -0.2044 0.4103
vn -0.8910 -0.1889 0.4129
vn -0.4914 0.7317 0.4724
vn -0.4978 0.7278 0.4718
vn -0.2527 0.8373 0.4848
vn -0.2520 0.8376 0.4847
vn -0.5166 -0.7438 0.4241
vn -0.5059 -0.7523 0.4221
vn -0.6999 -0.5616 0.4412
vn -0.7000 -0.5616 0.4411
vn 0.1211 0.8735 0.4716
vn 0.1091 0.8759 0.4701
vn 0.4494 0.7464 0.4908
vn 0.4467 0.7480 0.4908
vn -0.3738 -0.8253 0.4232
vn -0.3883 -0.8200 0.4204
vn -0.3449 -0.8306 0.4372
vn -0.3673 -0.8237 0.4319
vn 0.6922 0.5709 0.4415
vn 0.6921 0.5710 0.4415
vn 0.5210 0.7427 0.4206
vn 0.5095 0.7521 0.4182
vn 0.2914 -0.8566 0.4258
vn 0.2743 -0.8640 0.4223
vn 0.3661 -0.8133 0.4521
vn 0.3378 -0.8290 0.4456
vn 0.4987 0.7569 0.4224
vn 0.4859 0.7672 0.4186
vn 0.6670 0.5797 0.4681
vn 0.6736 0.5705 0.4698
vn 0.8149 0.2961 0.4982
vn 0.8141 0.2984 0.4982
vn 0.8721 -0.0619 0.4854
vn 0.8722 -0.0490 0.4867
vn -0.7965 0.4527 0.4008
vn -0.5687 0.6996 0.4326
vn -0.7858 0.4681 0.4042
vn -0.5686 0.6996 0.4326
vn -0.7738 0.4847 0.4078
vn -0.5689 0.6993 0.4327
vn -0.2976 0.8648 0.4045
vn -0.3163 0.8564 0.4080
vn -0.3193 0.8504 0.4181
vn -0.3443 0.8377 0.4240
vn -0.3725 0.8223 0.4302
vn -0.2807 0.8720 0.4011
vn -0.6107 0.6359 0.4718
vn -0.6157 0.6307 0.4723
vn -0.6215 0.6245 0.4730
vn -0.7671 0.4867 0.4180
vn -0.7497 0.5083 0.4239
vn -0.7287 0.5330 0.4301
vn -0.7682 0.4183 0.4847
vn -0.8742 0.1221 0.4699
vn -0.4840 0.7362 0.4730
vn -0.2523 0.8375 0.4847
vn -0.8857 -0.2041 0.4170
vn -0.8932 -0.1714 0.4157
vn -0.8957 0.0941 0.4345
vn -0.8957 0.0947 0.4345
vn -0.8956 0.0955 0.4345
vn -0.8303 0.3797 0.4079
vn -0.8363 0.3629 0.4110
vn -0.8271 0.3789 0.4151
vn -0.8202 0.3984 0.4105
vn -0.8799 0.0598 0.4713
vn -0.8798 0.0721 0.4699
vn -0.8246 -0.2816 0.4906
vn -0.8239 -0.2838 0.4906
vn -0.8246 0.3949 0.4050
vn -0.8344 0.3568 0.4201
vn -0.8799 0.0454 0.4729
vn -0.8257 -0.2786 0.4905
vn 0.0587 0.8806 0.4701
vn 0.0464 0.8807 0.4713
vn 0.0326 0.8807 0.4726
vn 0.3801 0.8254 0.4175
vn 0.3595 0.8322 0.4220
vn 0.3374 0.8391 0.4266
vn 0.3665 0.8335 0.4134
vn 0.3812 0.8282 0.4108
vn -0.6800 -0.5634 0.4692
vn -0.6867 -0.5541 0.4706
vn -0.6944 -0.5430 0.4721
vn 0.0906 0.8960 0.4348
vn 0.0902 0.8960 0.4348
vn 0.0895 0.8960 0.4349
vn 0.3500 0.8393 0.4161
vn -0.4955 -0.7570 0.4260
vn -0.5092 -0.7458 0.4295
vn -0.5238 -0.7336 0.4331
vn -0.5283 -0.7344 0.4262
vn -0.7001 -0.5615 0.4411
vn -0.8465 -0.3332 0.4154
vn -0.8406 -0.3451 0.4176
vn -0.8335 -0.3587 0.4202
vn -0.8428 -0.3341 0.4220
vn -0.8504 -0.3191 0.4182
vn -0.6955 -0.5439 0.4695
vn -0.7039 -0.5347 0.4677
vn -0.4557 -0.7379 0.4979
vn -0.4574 -0.7368 0.4979
vn -0.1841 0.8927 0.4113
vn -0.2020 0.8903 0.4082
vn -0.2183 0.8878 0.4052
vn -0.2016 0.8870 0.4154
vn -0.1786 0.8896 0.4204
vn -0.2227 0.8842 0.4106
vn -0.8343 -0.3501 0.4259
vn -0.6867 -0.5535 0.4713
vn -0.4529 -0.7395 0.4980
vn -0.1434 -0.8611 0.4878
vn -0.1290 -0.8641 0.4865
vn -0.1163 -0.8667 0.4852
vn 0.1954 -0.8787 0.4356
vn 0.2162 -0.8760 0.4312
vn 0.1956 -0.8821 0.4285
vn 0.1777 -0.8845 0.4313
vn -0.0974 -0.8874 0.4506
vn -0.0974 -0.8874 0.4505
vn 0.1354 0.8705 0.4732
vn 0.4442 0.7496 0.4908
vn 0.1721 -0.8812 0.4403
vn 0.2119 -0.8797 0.4258
vn -0.0978 -0.8874 0.4505
vn -0.3577 -0.8308 0.4263
vn -0.3868 -0.8172 0.4272
vn 0.6954 0.5448 0.4687
vn 0.6874 0.5537 0.4701
vn 0.6782 0.5636 0.4716
vn 0.8355 0.3433 0.4291
vn 0.8267 0.3597 0.4327
vn 0.8332 0.3544 0.4245
vn 0.8393 0.3421 0.4226
vn -0.0404 -0.8713 0.4890
vn -0.0542 -0.8714 0.4876
vn -0.0670 -0.8713 0.4861
vn 0.3278 -0.7994 0.5035
vn 0.3332 -0.7973 0.5033
vn 0.6059 -0.6421 0.4697
vn 0.6141 -0.6355 0.4680
vn 0.7307 -0.5230 0.4388
vn 0.7370 -0.5157 0.4370
vn 0.8431 0.3285 0.4259
vn 0.8260 0.3682 0.4268
vn 0.3209 -0.8021 0.5037
vn 0.5966 -0.6495 0.4714
vn 0.7243 -0.5303 0.4407
vn 0.6998 -0.5613 0.4420
vn 0.6928 -0.5688 0.4432
vn 0.6851 -0.5771 0.4445
vn 0.5172 -0.7252 0.4546
vn 0.5185 -0.7243 0.4546
vn 0.5156 -0.7263 0.4545
vn 0.6922 0.5708 0.4416
vn 0.4986 0.7606 0.4158
vn 0.3106 -0.8479 0.4296
vn 0.3129 -0.8419 0.4396
vn 0.6032 -0.6263 0.4939
vn 0.6087 -0.6205 0.4945
vn 0.6146 -0.6141 0.4952
vn 0.5127 0.7452 0.4264
vn 0.6816 0.5595 0.4716
vn 0.7607 -0.4077 0.5052
vn 0.7608 -0.4075 0.5051
vn 0.7609 -0.4073 0.5050
vn 0.8665 -0.1118 0.4864
vn 0.8642 -0.1237 0.4878
vn 0.8613 -0.1370 0.4892
vn 0.8832 0.1690 0.4375
vn 0.8810 0.1921 0.4324
vn 0.8785 0.2131 0.4275
vn 0.8838 0.1982 0.4237
vn 0.8860 0.1812 0.4268
vn 0.8886 -0.0847 0.4508
vn 0.8885 -0.0850 0.4508
vn 0.8817 0.2134 0.4208
vn 0.8886 -0.0845 0.4508
vn 0.8160 0.2932 0.4982
vn 0.8722 -0.0342 0.4880
vn 0.8183 -0.3861 0.4259
vn 0.8240 -0.3705 0.4287
vn 0.8301 -0.3532 0.4316
vn 0.8207 -0.3695 0.4358
vn 0.8138 -0.3895 0.4313
vn 0.8280 -0.3470 0.4406
usemtl d7d6dff1_dds
s 1
f 1/1/1 2/2/2 3/3/3
f 1/1/1 3/3/3 4/4/4
f 5/5/5 6/6/6 7/7/7
f 5/5/5 7/7/7 8/8/8
f 9/9/9 10/10/10 11/11/11
f 9/9/9 11/11/11 12/12/12
f 13/13/13 14/14/14 15/15/15
f 13/13/13 15/15/15 16/16/16
f 17/17/17 18/18/18 19/19/19
f 17/17/17 19/19/19 20/20/20
f 21/21/21 22/22/22 23/23/23
f 21/21/21 23/23/23 24/24/24
f 25/25/25 26/26/26 27/27/27
f 25/25/25 27/27/27 28/28/28
f 29/29/29 30/30/30 31/31/31
f 29/29/29 31/31/31 32/32/32
f 33/33/33 34/34/34 35/35/35
f 33/33/33 35/35/35 36/36/36
f 37/37/37 38/38/38 39/39/39
f 37/37/37 39/39/39 40/40/40
f 41/41/41 42/42/42 43/43/43
f 42/42/42 44/44/44 43/43/43
f 43/43/43 44/44/44 45/45/45
f 45/45/45 44/44/44 46/46/46
f 44/44/44 47/47/47 46/46/46
f 46/46/46 47/47/47 48/48/48
f 49/49/49 48/48/48 50/50/50
f 48/48/48 47/47/47 50/50/50
f 50/50/50 47/47/47 51/51/51
f 51/51/51 47/47/47 52/52/52
f 47/47/47 44/44/44 52/52/52
f 52/52/52 44/44/44 42/42/42
f 53/53/53 49/49/49 54/54/54
f 49/49/49 50/50/50 54/54/54
f 54/54/54 50/50/50 55/55/55
f 50/50/50 51/51/51 55/55/55
f 45/56/45 56/57/56 43/58/43
f 56/57/56 57/59/57 43/58/43
f 43/58/43 57/59/57 41/60/41
f 57/59/57 58/61/58 41/60/41
f 55/55/55 2/2/2 54/54/54
f 2/2/2 1/1/1 54/54/54
f 54/54/54 1/1/1 53/53/53
f 53/53/53 1/1/1 59/62/59
f 1/1/1 4/4/4 59/62/59
f 59/62/59 4/4/4 60/63/60
f 56/57/56 10/10/10 57/59/57
f 10/10/10 9/9/9 57/59/57
f 57/59/57 9/9/9 58/61/58
f 58/61/58 9/9/9 61/64/61
f 9/9/9 12/12/12 61/64/61
f 61/64/61 12/12/12 62/65/62
f 3/3/3 6/6/6 4/4/4
f 6/6/6 5/5/5 4/4/4
f 4/4/4 5/5/5 60/63/60
f 60/63/60 5/5/5 63/66/63
f 5/5/5 8/8/8 63/66/63
f 63/66/63 8/8/8 64/67/64
f 7/7/7 65/68/65 8/8/8
f 65/68/65 66/69/66 8/8/8
f 8/8/8 66/69/66 64/67/64
f 64/67/64 66/69/66 67/70/67
f 66/69/66 68/71/68 67/70/67
f 67/70/67 68/71/68 69/72/69
f 68/71/68 70/73/70 69/72/69
f 69/72/69 70/73/70 71/74/71
f 70/73/70 72/75/72 71/74/71
f 71/74/71 72/75/72 73/76/73
f 72/75/72 74/77/74 73/76/73
f 73/76/73 74/77/74 75/78/75
f 65/68/65 76/79/76 66/69/66
f 66/69/66 76/79/76 68/71/68
f 76/79/76 77/80/77 68/71/68
f 68/71/68 77/80/77 70/73/70
f 77/80/77 78/81/78 70/73/70
f 70/73/70 78/81/78 72/75/72
f 78/81/78 79/82/79 72/75/72
f 72/75/72 79/82/79 74/77/74
f 11/11/11 80/83/80 12/12/12
f 80/83/80 81/84/81 12/12/12
f 12/12/12 81/84/81 62/65/62
f 81/84/81 82/85/82 62/65/62
f 80/83/80 83/86/83 81/84/81
f 83/86/83 84/87/84 81/84/81
f 81/84/81 84/87/84 82/85/82
f 82/85/82 84/87/84 85/88/85
f 84/87/84 86/89/86 85/88/85
f 85/88/85 86/89/86 87/90/87
f 88/91/88 75/78/75 89/92/89
f 75/78/75 74/77/74 89/92/89
f 89/92/89 74/77/74 90/93/90
f 74/77/74 79/82/79 90/93/90
f 91/94/91 87/90/87 92/95/92
f 87/90/87 86/89/86 92/95/92
f 92/95/92 86/89/86 93/96/93
f 93/96/93 86/89/86 94/97/94
f 86/89/86 84/87/84 94/97/94
f 94/97/94 84/87/84 83/86/83
f 95/98/95 88/91/88 96/99/96
f 88/91/88 89/92/89 96/99/96
f 96/99/96 89/92/89 97/100/97
f 89/92/89 90/93/90 97/100/97
f 97/100/97 14/14/14 96/99/96
f 14/14/14 13/13/13 96/99/96
f 96/99/96 13/13/13 95/98/95
f 95/98/95 13/13/13 98/101/98
f 13/13/13 16/16/16 98/101/98
f 98/101/98 16/16/16 99/102/99
f 15/15/15 100/103/100 16/16/16
f 100/103/100 101/104/101 16/16/16
f 16/16/16 101/104/101 99/102/99
f 99/102/99 101/104/101 102/105/102
f 101/104/101 103/106/103 102/105/102
f 102/105/102 103/106/103 104/107/104
f 103/106/103 105/108/105 104/107/104
f 104/107/104 105/108/105 106/109/106
f 105/108/105 107/110/107 106/109/106
f 106/109/106 107/110/107 108/111/108
f 93/96/93 109/112/109 92/95/92
f 109/112/109 110/113/110 92/95/92
f 92/95/92 110/113/110 91/94/91
f 91/94/91 110/113/110 111/114/111
f 110/113/110 112/115/112 111/114/111
f 111/114/111 112/115/112 113/116/113
f 113/116/113 112/115/112 17/17/17
f 17/17/17 112/115/112 18/18/18
f 18/18/18 112/115/112 114/117/114
f 112/115/112 110/113/110 114/117/114
f 114/117/114 110/113/110 109/112/109
f 100/103/100 115/118/115 101/104/101
f 101/104/101 115/118/115 103/106/103
f 115/118/115 116/119/116 103/106/103
f 103/106/103 116/119/116 105/108/105
f 116/119/116 117/120/117 105/108/105
f 105/108/105 117/120/117 107/110/107
f 117/120/117 118/121/118 107/110/107
f 118/121/118 119/122/119 107/110/107
f 107/110/107 119/122/119 108/111/108
f 108/111/108 119/122/119 120/123/120
f 119/122/119 121/124/121 120/123/120
f 120/123/120 121/124/121 122/125/122
f 121/124/121 123/126/123 122/125/122
f 122/125/122 123/126/123 124/127/124
f 123/126/123 125/128/125 124/127/124
f 124/127/124 125/128/125 126/129/126
f 113/116/113 17/17/17 127/130/127
f 17/17/17 20/20/20 127/130/127
f 127/130/127 20/20/20 128/131/128
f 118/121/118 129/132/129 119/122/119
f 119/122/119 129/132/129 121/124/121
f 129/132/129 130/133/130 121/124/121
f 121/124/121 130/133/130 123/126/123
f 130/133/130 131/134/131 123/126/123
f 123/126/123 131/134/131 125/128/125
f 131/134/131 22/22/22 125/128/125
f 22/22/22 21/21/21 125/128/125
f 125/128/125 21/21/21 126/129/126
f 126/129/126 21/21/21 132/135/132
f 21/21/21 24/24/24 132/135/132
f 132/135/132 24/24/24 133/136/133
f 19/19/19 134/137/134 20/20/20
f 134/137/134 135/138/135 20/20/20
f 20/20/20 135/138/135 128/131/128
f 128/131/128 135/138/135 136/139/136
f 135/138/135 137/140/137 136/139/136
f 136/139/136 137/140/137 138/141/138
f 137/140/137 139/142/139 138/141/138
f 138/141/138 139/142/139 140/143/140
f 23/23/23 141/144/141 24/24/24
f 141/144/141 142/145/142 24/24/24
f 24/24/24 142/145/142 133/136/133
f 133/136/133 142/145/142 143/146/143
f 142/145/142 144/147/144 143/146/143
f 143/146/143 144/147/144 145/148/145
f 144/147/144 146/149/146 145/148/145
f 145/148/145 146/149/146 147/150/147
f 146/149/146 148/151/148 147/150/147
f 147/150/147 148/151/148 149/152/149
f 134/137/134 150/153/150 135/138/135
f 135/138/135 150/153/150 137/140/137
f 150/153/150 151/154/151 137/140/137
f 137/140/137 151/154/151 139/142/139
f 141/144/141 152/155/152 142/145/142
f 142/145/142 152/155/152 144/147/144
f 152/155/152 153/156/153 144/147/144
f 144/147/144 153/156/153 146/149/146
f 153/156/153 154/157/154 146/149/146
f 146/149/146 154/157/154 148/151/148
f 154/157/154 155/158/155 148/151/148
f 155/158/155 156/159/156 148/151/148
f 148/151/148 156/159/156 149/152/149
f 149/152/149 156/159/156 157/160/157
f 156/159/156 158/161/158 157/160/157
f 157/160/157 158/161/158 159/162/159
f 159/162/159 158/161/158 29/29/29
f 29/29/29 158/161/158 30/30/30
f 30/30/30 158/161/158 160/163/160
f 158/161/158 156/159/156 160/163/160
f 160/163/160 156/159/156 155/158/155
f 151/154/151 26/26/26 139/142/139
f 26/26/26 25/25/25 139/142/139
f 139/142/139 25/25/25 140/143/140
f 140/143/140 25/25/25 161/164/161
f 25/25/25 28/28/28 161/164/161
f 161/164/161 28/28/28 162/165/162
f 159/162/159 29/29/29 163/166/163
f 29/29/29 32/32/32 163/166/163
f 163/166/163 32/32/32 164/167/164
f 165/168/165 164/167/164 166/169/166
f 164/167/164 32/32/32 166/169/166
f 166/169/166 32/32/32 167/170/167
f 32/32/32 31/31/31 167/170/167
f 27/27/27 34/34/34 28/28/28
f 34/34/34 33/33/33 28/28/28
f 28/28/28 33/33/33 162/165/162
f 162/165/162 33/33/33 168/171/168
f 33/33/33 36/36/36 168/171/168
f 168/171/168 36/36/36 169/172/169
f 170/173/170 165/168/165 171/174/171
f 165/168/165 166/169/166 171/174/171
f 171/174/171 166/169/166 172/175/172
f 166/169/166 167/170/167 172/175/172
f 173/176/173 170/173/170 174/177/174
f 170/173/170 171/174/171 174/177/174
f 174/177/174 171/174/171 175/178/175
f 171/174/171 172/175/172 175/178/175
f 175/178/175 176/179/176 174/177/174
f 176/179/176 177/180/177 174/177/174
f 174/177/174 177/180/177 173/176/173
f 173/176/173 177/180/177 178/181/178
f 177/180/177 179/182/179 178/181/178
f 178/181/178 179/182/179 180/183/180
f 179/182/179 181/184/181 180/183/180
f 180/183/180 181/184/181 182/185/182
f 176/179/176 183/186/183 177/180/177
f 177/180/177 183/186/183 179/182/179
f 183/186/183 184/187/184 179/182/179
f 179/182/179 184/187/184 181/184/181
f 35/35/35 38/38/38 36/36/36
f 38/38/38 37/37/37 36/36/36
f 36/36/36 37/37/37 169/172/169
f 169/172/169 37/37/37 185/188/185
f 37/37/37 40/40/40 185/188/185
f 185/188/185 40/40/40 186/189/186
f 184/187/184 187/190/187 181/184/181
f 187/190/187 188/191/188 181/184/181
f 181/184/181 188/191/188 182/185/182
f 182/185/182 188/191/188 189/192/189
f 188/191/188 190/193/190 189/192/189
f 189/192/189 190/193/190 191/194/191
f 190/193/190 40/40/40 191/194/191
f 191/194/191 40/40/40 39/39/39
f 187/190/187 192/195/192 188/191/188
f 188/191/188 192/195/192 190/193/190
f 192/195/192 186/189/186 190/193/190
f 190/193/190 186/189/186 40/40/40
